<svg xmlns="http://www.w3.org/2000/svg" width="120" height="120" viewBox="0 0 120 120">
    <g fill="none" fill-rule="evenodd">
        <g>
            <g transform="translate(-100.000000, -179.000000) translate(100.000000, 179.000000)">
                <path fill="#C4E9C0" d="M96 94.275c0 1.533-16.453 2.775-36.75 2.775-20.295 0-36.75-1.242-36.75-2.775 0-1.532 16.455-2.775 36.75-2.775C79.547 91.5 96 92.743 96 94.275"/>
                <path fill="#FFF" d="M84.481 93.965L92.79 93.965 92.79 62.413 84.481 62.413z"/>
                <path fill="#FFF" d="M98.339 62.414H20.762c-1.527 0-2.762-1.237-2.762-2.76V51.89c0-1.526 1.235-2.76 2.762-2.76H98.34c1.528 0 2.762 1.234 2.762 2.76v7.764c0 1.523-1.234 2.76-2.762 2.76"/>
                <path stroke="#007731" stroke-linecap="round" stroke-linejoin="round" d="M98.339 62.414H20.762c-1.527 0-2.762-1.237-2.762-2.76V51.89c0-1.526 1.235-2.76 2.762-2.76H98.34c1.528 0 2.762 1.234 2.762 2.76v7.764c0 1.523-1.234 2.76-2.762 2.76z"/>
                <path fill="#FFF" d="M26.31 93.965L34.619 93.965 34.619 62.413 26.31 62.413z"/>
                <path stroke="#007731" stroke-linecap="round" stroke-linejoin="round" d="M26.31 93.965L34.619 93.965 34.619 62.413 26.31 62.413zM84.481 93.965L92.79 93.965 92.79 62.413 84.481 62.413z"/>
                <path fill="#FFF" d="M34.619 84.001L84.481 84.001 84.481 75.699 34.619 75.699z"/>
                <path stroke="#007731" stroke-linecap="round" stroke-linejoin="round" d="M34.619 84.001L84.481 84.001 84.481 75.699 34.619 75.699z"/>
                <path fill="#FFF" d="M26.313 49.129L36.282 49.129 36.282 41.432 26.313 41.432z"/>
                <path stroke="#007731" stroke-linecap="round" stroke-linejoin="round" d="M26.313 49.129L36.282 49.129 36.282 41.432 26.313 41.432z"/>
                <path fill="#C4E9C0" d="M31.296 62.414L22.985 62.414 29.633 49.13 37.945 49.13z"/>
                <path stroke="#007731" stroke-linecap="round" stroke-linejoin="round" d="M31.296 62.414L22.985 62.414 29.633 49.13 37.945 49.13z"/>
                <path fill="#C4E9C0" d="M51.239 62.414L42.93 62.414 49.576 49.13 57.888 49.13z"/>
                <path stroke="#007731" stroke-linecap="round" stroke-linejoin="round" d="M51.239 62.414L42.93 62.414 49.576 49.13 57.888 49.13z"/>
                <path fill="#C4E9C0" d="M71.185 62.414L62.873 62.414 69.522 49.13 77.831 49.13z"/>
                <path stroke="#007731" stroke-linecap="round" stroke-linejoin="round" d="M71.185 62.414L62.873 62.414 69.522 49.13 77.831 49.13z"/>
                <path fill="#C4E9C0" d="M91.129 62.414L82.819 62.414 89.466 49.13 97.777 49.13z"/>
                <path stroke="#007731" stroke-linecap="round" stroke-linejoin="round" d="M91.129 62.414L82.819 62.414 89.466 49.13 97.777 49.13z"/>
                <path fill="#C4E9C0" d="M44.593 84L37.947 84 42.93 75.698 49.579 75.698z"/>
                <path stroke="#007731" stroke-linecap="round" stroke-linejoin="round" d="M44.593 84L37.947 84 42.93 75.698 49.579 75.698z"/>
                <path fill="#C4E9C0" d="M59.551 84L52.902 84 57.888 75.698 64.537 75.698z"/>
                <path stroke="#007731" stroke-linecap="round" stroke-linejoin="round" d="M59.551 84L52.902 84 57.888 75.698 64.537 75.698z"/>
                <path fill="#C4E9C0" d="M74.509 84L67.863 84 72.846 75.698 79.495 75.698z"/>
                <path stroke="#007731" stroke-linecap="round" stroke-linejoin="round" d="M74.509 84L67.863 84 72.846 75.698 79.495 75.698z"/>
                <path fill="#70CE6A" d="M39.608 35.305c0 4.584-3.724 8.304-8.312 8.304-4.588 0-8.312-3.72-8.312-8.304 0-4.587 3.724-8.305 8.312-8.305 4.588 0 8.312 3.718 8.312 8.305"/>
                <path stroke="#007731" stroke-linecap="round" stroke-linejoin="round" d="M39.608 35.305c0 4.584-3.724 8.304-8.312 8.304-4.588 0-8.312-3.72-8.312-8.304 0-4.587 3.724-8.305 8.312-8.305 4.588 0 8.312 3.718 8.312 8.305z"/>
                <path fill="#FFF" d="M82.821 49.129L92.79 49.129 92.79 41.432 82.821 41.432z"/>
                <path stroke="#007731" stroke-linecap="round" stroke-linejoin="round" d="M82.821 49.129L92.79 49.129 92.79 41.432 82.821 41.432z"/>
                <path fill="#70CE6A" d="M96.116 35.305c0 4.584-3.723 8.304-8.312 8.304-4.588 0-8.311-3.72-8.311-8.304 0-4.587 3.723-8.305 8.311-8.305 4.589 0 8.312 3.718 8.312 8.305"/>
                <path stroke="#007731" stroke-linecap="round" stroke-linejoin="round" d="M96.116 35.305c0 4.584-3.723 8.304-8.312 8.304-4.588 0-8.311-3.72-8.311-8.304 0-4.587 3.723-8.305 8.311-8.305 4.589 0 8.312 3.718 8.312 8.305z"/>
                <path fill="#FFF" stroke="#007731" stroke-linecap="round" stroke-linejoin="round" d="M105.244 22.536c.322-1.388 1.404-2.471 2.792-2.792l5.603-1.292c.211-.05.361-.237.361-.454 0-.216-.15-.405-.361-.453l-5.603-1.292c-1.388-.32-2.47-1.404-2.792-2.792l-1.292-5.6c-.048-.211-.237-.361-.453-.361-.218 0-.405.15-.455.361l-1.291 5.6c-.32 1.388-1.404 2.471-2.792 2.792l-5.6 1.292c-.21.048-.361.237-.361.453 0 .217.151.405.361.454l5.6 1.292c1.387.32 2.471 1.404 2.79 2.792l1.293 5.603c.05.211.237.361.455.361.216 0 .405-.15.453-.361l1.292-5.603zM14.669 77.667l4.539-1.514c.175-.058.292-.22.292-.404 0-.183-.117-.347-.292-.405l-3.73-1.244c-.51-.169-.908-.568-1.08-1.078l-1.243-3.73c-.057-.174-.22-.292-.403-.292-.184 0-.347.118-.406.292l-1.242 3.73c-.17.509-.57.909-1.08 1.078l-3.73 1.244c-.176.058-.294.222-.294.405 0 .184.118.346.294.404l3.73 1.244c.51.17.91.57 1.08 1.08l1.242 3.732c.059.174.222.291.406.291.183 0 .346-.117.403-.29l1.514-4.543z"/>
                <circle cx="60" cy="18" r="4.5" stroke="#11B719" stroke-width="1.5" transform="translate(60.000000, 18.000000) scale(-1, 1) translate(-60.000000, -18.000000)"/>
                <g stroke="#70CE6A" stroke-linecap="round" stroke-linejoin="round" stroke-width="1.5">
                    <path d="M5.25 0L5.25 9" transform="translate(31.500000, 102.000000) translate(5.250000, 4.500000) scale(-1, 1) translate(-5.250000, -4.500000)"/>
                    <path d="M5.25 0L5.25 9" transform="translate(31.500000, 102.000000) translate(5.250000, 4.500000) scale(-1, 1) rotate(-270.000000) translate(-5.250000, -4.500000)"/>
                </g>
                <g stroke="#70CE6A" stroke-linecap="round" stroke-linejoin="round" stroke-width="1.5">
                    <path d="M3.75 0L3.75 6" transform="translate(6.000000, 40.500000) translate(3.750000, 3.000000) scale(-1, 1) translate(-3.750000, -3.000000)"/>
                    <path d="M3.75 0L3.75 6" transform="translate(6.000000, 40.500000) translate(3.750000, 3.000000) scale(-1, 1) rotate(-270.000000) translate(-3.750000, -3.000000)"/>
                </g>
                <g stroke="#70CE6A" stroke-linecap="round" stroke-linejoin="round" stroke-width="1.5">
                    <path d="M3.75 0L3.75 6" transform="translate(84.000000, 106.500000) translate(3.750000, 3.000000) scale(-1, 1) translate(-3.750000, -3.000000)"/>
                    <path d="M3.75 0L3.75 6" transform="translate(84.000000, 106.500000) translate(3.750000, 3.000000) scale(-1, 1) rotate(-270.000000) translate(-3.750000, -3.000000)"/>
                </g>
                <circle cx="107.25" cy="84.75" r="3.75" stroke="#11B719" stroke-width="1.5" transform="translate(107.250000, 84.750000) scale(-1, 1) translate(-107.250000, -84.750000)"/>
            </g>
        </g>
    </g>
</svg>
